<svg xmlns="http://www.w3.org/2000/svg" viewBox="0 0 128 128" role="img" aria-label="cocoraru flower mark">
  <g fill="none" stroke="#575d43" stroke-width="3.2" stroke-linecap="round" stroke-linejoin="round">
    <path d="M65 7c18 0 35 7 45 20 10 12 14 30 10 48-4 20-18 36-37 42-17 5-37 2-51-9C17 97 9 80 10 61c1-17 9-33 22-43C41 11 53 7 65 7Z" opacity=".9"/>
    <path d="M64 95C62 78 59 62 51 45"/>
    <path d="M58 76c-11-2-20-8-25-18 13-3 23 2 30 14"/>
    <path d="M66 76c11-4 19-13 23-27-13 4-21 13-25 25"/>
    <path d="M54 60c-9-2-15-8-18-17 10-1 17 3 22 13"/>
    <path d="M63 58c9-5 15-13 18-24-11 4-17 11-20 21"/>
    <path d="M51 45c-4-8-7-15-12-22"/>
    <path d="M44 35c5-1 9-4 12-9"/>
    <path d="M49 47c-4-5-10-7-17-6"/>
    <path d="M50 37c-2-5-2-10 0-15"/>
  </g>
  <g fill="#575d43">
    <circle cx="38" cy="22" r="2.2"/>
    <circle cx="33" cy="33" r="1.9"/>
    <circle cx="45" cy="28" r="1.7"/>
    <circle cx="55" cy="22" r="1.6"/>
    <circle cx="31" cy="44" r="1.6"/>
    <circle cx="43" cy="41" r="1.5"/>
    <circle cx="48" cy="52" r="1.6"/>
  </g>
</svg>
